<svg xmlns="http://www.w3.org/2000/svg" version="1.1" xmlns:xlink="http://www.w3.org/1999/xlink" xmlns:svgjs="http://svgjs.dev/svgjs" width="1500" height="1682" viewBox="0 0 1500 1682"><g transform="matrix(1,0,0,1,-2.3363953870821206,0)"><svg viewBox="0 0 321 360" data-background-color="#000000" preserveAspectRatio="xMidYMid meet" height="1682" width="1500" xmlns="http://www.w3.org/2000/svg" xmlns:xlink="http://www.w3.org/1999/xlink"><g id="tight-bounds" transform="matrix(1,0,0,1,0.5,0)"><svg viewBox="0 0 320 360" height="360" width="320"><rect width="320.0000113871644" height="360" fill="url(#d94c8661-2dc6-4f6f-bbbc-ee5ad78d0d21)" mask="url(#fa976811-019b-4e35-95c9-12dd4b6c2e98)" data-fill-palette-color="tertiary"></rect><g><svg></svg></g><g><svg viewBox="0 0 320 360" height="360" width="320"><g><path transform="translate(-8.74414,11.24127) scale(3.37517,3.37517)" d="M89.9 29.89c-2.6-3.17-7.52-4.8-12.74-6.52-2.24-0.74-4.55-1.51-6.81-2.44-2.28-0.94-4.52-2.15-6.7-3.31-4.43-2.38-9.01-4.84-13.66-4.84-4.64 0-9.22 2.46-13.65 4.84-2.18 1.17-4.43 2.38-6.71 3.32-2.25 0.93-4.57 1.69-6.81 2.44-5.22 1.73-10.14 3.36-12.74 6.52-3.47 4.23-3.39 10.5-3.31 17.13 0.01 1 0.02 1.99 0.02 2.97 0 0.98-0.01 1.97-0.03 2.97-0.08 6.64-0.16 12.9 3.31 17.14 2.6 3.16 7.52 4.79 12.73 6.52 2.24 0.74 4.55 1.51 6.82 2.44 2.28 0.94 4.52 2.14 6.69 3.31 4.44 2.39 9.02 4.85 13.66 4.85 4.65 0 9.23-2.46 13.66-4.84 2.18-1.17 4.42-2.38 6.7-3.31 2.25-0.93 4.55-1.69 6.78-2.43 5.25-1.74 10.17-3.37 12.77-6.53 3.47-4.23 3.39-10.5 3.31-17.13-0.01-1.01-0.03-2-0.03-2.98 0-0.98 0.01-1.97 0.03-2.96 0.11-6.66 0.19-12.93-3.29-17.16zM93.12 27.25c-4.66-5.68-13.57-7.03-21.18-10.17-6.81-2.8-13.74-8.47-21.94-8.47-8.2 0-15.13 5.67-21.94 8.47-7.62 3.14-16.52 4.49-21.18 10.17-5.06 6.16-4.24 14.85-4.24 22.75 0 7.89-0.82 16.59 4.23 22.75 4.66 5.68 13.57 7.03 21.18 10.17 6.81 2.81 13.74 8.47 21.94 8.47 8.2 0 15.13-5.66 21.94-8.47 7.62-3.14 16.52-4.49 21.18-10.17 5.05-6.16 4.23-14.85 4.23-22.75 0.02-7.9 0.84-16.59-4.22-22.75zM94.4 52.94c0.09 6.88 0.17 13.35-3.58 17.92-2.82 3.43-7.9 5.12-13.28 6.9-2.24 0.74-4.53 1.5-6.73 2.41-2.22 0.91-4.43 2.1-6.57 3.25-4.58 2.46-9.29 4.99-14.24 4.99-4.95 0-9.66-2.53-14.22-4.98-2.15-1.16-4.37-2.35-6.59-3.26-2.23-0.92-4.52-1.68-6.74-2.41-5.39-1.78-10.47-3.47-13.28-6.9-3.74-4.56-3.66-11.04-3.58-17.9 0.01-1 0.03-1.98 0.03-2.96 0-0.98-0.01-1.96-0.02-2.96-0.09-6.86-0.17-13.34 3.58-17.9 2.82-3.43 7.9-5.11 13.28-6.9 2.23-0.74 4.52-1.5 6.74-2.41 2.22-0.92 4.44-2.11 6.59-3.26 4.56-2.45 9.28-4.99 14.22-4.99 4.94 0 9.66 2.53 14.22 4.98 2.15 1.16 4.37 2.35 6.59 3.26 2.22 0.92 4.52 1.67 6.73 2.41 5.38 1.78 10.47 3.47 13.28 6.9 3.75 4.57 3.67 11.04 3.58 17.9-0.01 1.01-0.03 1.99-0.03 2.96 0 0.98 0.01 1.96 0.02 2.95z" fill="url(#d94c8661-2dc6-4f6f-bbbc-ee5ad78d0d21)" fill-rule="nonzero" stroke="none" stroke-width="1" stroke-linecap="butt" stroke-linejoin="miter" stroke-miterlimit="10" stroke-dasharray="" stroke-dashoffset="0" font-family="none" font-weight="none" font-size="none" text-anchor="none" style="mix-blend-mode: normal" data-fill-palette-color="tertiary"></path></g><g transform="matrix(1,0,0,1,68.78717141600575,108)"><svg viewBox="0 0 182.4256571679885 144" height="144" width="182.4256571679885"><g><svg viewBox="0 0 192 151.55762862095685" height="144" width="182.4256571679885"><g transform="matrix(1,0,0,1,0,113.66894135077577)"><svg viewBox="0 0 192 37.88868727018107" height="37.88868727018107" width="192"><g id="textblocktransform"><svg viewBox="0 0 192 37.88868727018107" height="37.88868727018107" width="192" id="textblock"><g><svg viewBox="0 0 192 37.88868727018107" height="37.88868727018107" width="192"><g transform="matrix(1,0,0,1,0,0)"><svg width="192" viewBox="3.49 -35.5 183.83619276812726 35.99" height="37.88868727018107" data-palette-color="#000000"><g transform="matrix(1,0,0,1,0,0)"><g><svg width="4.249864230079558" viewBox="1.99 -36.86 28.76 37.37" height="5.522200126121896" data-palette-color="#000000" id="scriptelement" x="179.8048506530875" y="-8.157510063060949"><path d="M30.26-25.91L22.89-25.91Q22.67-28.05 21.06-29.24 19.44-30.43 16.67-30.43L16.67-30.43Q14.79-30.43 13.49-29.91 12.2-29.39 11.51-28.46 10.83-27.54 10.83-26.37L10.83-26.37Q10.8-25.39 11.25-24.66 11.7-23.93 12.5-23.41 13.3-22.89 14.35-22.51 15.39-22.12 16.58-21.86L16.58-21.86 19.85-21.08Q22.23-20.54 24.22-19.66 26.21-18.77 27.66-17.47 29.12-16.18 29.93-14.42 30.74-12.66 30.75-10.39L30.75-10.39Q30.74-7.05 29.06-4.61 27.38-2.17 24.23-0.83 21.08 0.51 16.64 0.51L16.64 0.51Q12.23 0.51 8.98-0.83 5.72-2.18 3.9-4.84 2.08-7.49 1.99-11.42L1.99-11.42 9.43-11.42Q9.55-9.59 10.48-8.37 11.42-7.16 12.99-6.54 14.56-5.93 16.55-5.93L16.55-5.93Q18.5-5.93 19.95-6.5 21.4-7.07 22.19-8.08 22.99-9.09 22.99-10.4L22.99-10.4Q22.99-11.63 22.27-12.46 21.56-13.3 20.18-13.88 18.8-14.47 16.81-14.95L16.81-14.95 12.86-15.94Q8.26-17.06 5.59-19.44 2.93-21.82 2.95-25.85L2.95-25.85Q2.93-29.15 4.71-31.62 6.5-34.09 9.62-35.48 12.75-36.86 16.73-36.86L16.73-36.86Q20.77-36.86 23.8-35.48 26.83-34.09 28.52-31.62 30.2-29.15 30.26-25.91L30.26-25.91Z" opacity="1" transform="matrix(1,0,0,1,0,0)" fill="#000000" class="undefined-123" data-fill-palette-color="quaternary" id="tk-123"></path></svg></g></g><path d="M176.533-5.396C176.533-8.377 178.949-10.793 181.93-10.793 184.91-10.793 187.326-8.377 187.326-5.396 187.326-2.416 184.91 0 181.93 0 178.949 0 176.533-2.416 176.533-5.396ZM181.93-0.553C184.605-0.553 186.773-2.721 186.773-5.396 186.773-8.071 184.605-10.24 181.93-10.24 179.255-10.24 177.086-8.071 177.086-5.396 177.086-2.721 179.255-0.553 181.93-0.553Z" fill="#000000" id="scriptcircle" data-fill-palette-color="quaternary"></path><path d="M23.19-8.11L23.19-8.11Q23.19-6.32 22.52-4.76 21.85-3.2 20.68-2.03 19.51-0.85 17.94-0.18 16.38 0.49 14.6 0.49L14.6 0.49 12.11 0.49Q10.33 0.49 8.75-0.18 7.18-0.85 6.01-2.03 4.83-3.2 4.16-4.76 3.49-6.32 3.49-8.11L3.49-8.11 3.49-26.9Q3.49-28.69 4.16-30.25 4.83-31.81 6.01-32.98 7.18-34.16 8.75-34.83 10.33-35.5 12.11-35.5L12.11-35.5 14.6-35.5Q16.38-35.5 17.94-34.83 19.51-34.16 20.68-32.98 21.85-31.81 22.52-30.25 23.19-28.69 23.19-26.9L23.19-26.9 23.19-8.11ZM20.04-8.11L20.04-26.9Q20.04-28.08 19.6-29.09 19.17-30.1 18.41-30.86 17.65-31.62 16.64-32.06 15.63-32.5 14.45-32.5L14.45-32.5 12.26-32.5Q11.08-32.5 10.07-32.06 9.06-31.62 8.29-30.86 7.52-30.1 7.08-29.09 6.64-28.08 6.64-26.9L6.64-26.9 6.64-8.11Q6.64-6.93 7.08-5.92 7.52-4.91 8.29-4.14 9.06-3.37 10.07-2.93 11.08-2.49 12.26-2.49L12.26-2.49 14.45-2.49Q15.63-2.49 16.64-2.93 17.65-3.37 18.41-4.14 19.17-4.91 19.6-5.92 20.04-6.93 20.04-8.11L20.04-8.11ZM50.8 0L47.17 0 37.67-14.94 33.35-14.94 33.35 0 30.2 0 30.2-35.01 41.31-35.01Q43.09-35.01 44.65-34.34 46.21-33.67 47.39-32.5 48.56-31.32 49.23-29.75 49.9-28.17 49.9-26.39L49.9-26.39 49.9-23.56Q49.9-21.78 49.23-20.2 48.56-18.63 47.39-17.46 46.21-16.28 44.65-15.61 43.09-14.94 41.31-14.94L41.31-14.94 50.8 0ZM46.75-23.56L46.75-26.39Q46.75-27.56 46.31-28.58 45.87-29.59 45.11-30.36 44.36-31.13 43.34-31.57 42.33-32.01 41.16-32.01L41.16-32.01 33.35-32.01 33.35-17.94 41.16-17.94Q42.33-17.94 43.34-18.38 44.36-18.82 45.11-19.59 45.87-20.36 46.31-21.37 46.75-22.39 46.75-23.56L46.75-23.56ZM72.85 0L56.29 0 56.29-35.01 59.44-35.01 59.44-3 72.85-3 72.85 0ZM93.3 0L90.98-8.15 79.9-8.15 77.6 0 74.33 0 84.59-35.01 86.25-35.01 96.55 0 93.3 0ZM85.34-27.29L80.75-11.16 90.15-11.16 85.54-27.29 85.44-28.59 85.34-27.29ZM120.74 0L119.08 0 104.48-25.49 104.19-27 104.19 0 101.04 0 101.04-35.01 102.68-35.01 117.28-9.5 117.59-8.01 117.59-35.01 120.74-35.01 120.74 0ZM148.45-8.59L148.45-8.59Q148.45-6.81 147.78-5.25 147.11-3.69 145.93-2.51 144.76-1.34 143.19-0.67 141.61 0 139.83 0L139.83 0 128.75 0 128.75-35.01 139.83-35.01Q141.61-35.01 143.19-34.34 144.76-33.67 145.93-32.5 147.11-31.32 147.78-29.75 148.45-28.17 148.45-26.39L148.45-26.39 148.45-8.59ZM145.3-8.59L145.3-26.39Q145.3-27.56 144.86-28.58 144.42-29.59 143.65-30.36 142.88-31.13 141.87-31.57 140.86-32.01 139.68-32.01L139.68-32.01 131.9-32.01 131.9-3 139.68-3Q140.86-3 141.87-3.44 142.88-3.88 143.65-4.64 144.42-5.4 144.86-6.41 145.3-7.42 145.3-8.59L145.3-8.59ZM175.13-8.11L175.13-8.11Q175.13-6.32 174.46-4.76 173.79-3.2 172.62-2.03 171.44-0.85 169.88-0.18 168.32 0.49 166.54 0.49L166.54 0.49 164.05 0.49Q162.27 0.49 160.69-0.18 159.12-0.85 157.94-2.03 156.77-3.2 156.1-4.76 155.43-6.32 155.43-8.11L155.43-8.11 155.43-26.9Q155.43-28.69 156.1-30.25 156.77-31.81 157.94-32.98 159.12-34.16 160.69-34.83 162.27-35.5 164.05-35.5L164.05-35.5 166.54-35.5Q168.32-35.5 169.88-34.83 171.44-34.16 172.62-32.98 173.79-31.81 174.46-30.25 175.13-28.69 175.13-26.9L175.13-26.9 175.13-8.11ZM171.98-8.11L171.98-26.9Q171.98-28.08 171.54-29.09 171.1-30.1 170.35-30.86 169.59-31.62 168.58-32.06 167.56-32.5 166.39-32.5L166.39-32.5 164.19-32.5Q163.02-32.5 162.01-32.06 161-31.62 160.23-30.86 159.46-30.1 159.02-29.09 158.58-28.08 158.58-26.9L158.58-26.9 158.58-8.11Q158.58-6.93 159.02-5.92 159.46-4.91 160.23-4.14 161-3.37 162.01-2.93 163.02-2.49 164.19-2.49L164.19-2.49 166.39-2.49Q167.56-2.49 168.58-2.93 169.59-3.37 170.35-4.14 171.1-4.91 171.54-5.92 171.98-6.93 171.98-8.11L171.98-8.11Z" opacity="1" transform="matrix(1,0,0,1,0,0)" fill="#000000" class="wordmark-text-0" data-fill-palette-color="quaternary" id="text-0"></path></svg></g></svg></g></svg></g></svg></g><g transform="matrix(1,0,0,1,25.891660843661597,0)"><svg viewBox="0 0 140.2166783126768 104.7243316147805" height="104.7243316147805" width="140.2166783126768"><g><svg xmlns="http://www.w3.org/2000/svg" xmlns:xlink="http://www.w3.org/1999/xlink" version="1.1" x="0" y="0" viewBox="2.1 14.2 96 71.7" style="enable-background:new 0 0 100 100;" xml:space="preserve" height="104.7243316147805" width="140.2166783126768" class="icon-icon-0" data-fill-palette-color="quaternary" id="icon-0"><g fill="#000000" data-fill-palette-color="quaternary"><path d="M13.2 69.1C12.7 66.5 10.5 64.6 7.8 64.6 4.7 64.6 2.2 67.1 2.2 70.2S4.7 75.8 7.8 75.8C10.5 75.8 12.8 73.9 13.2 71.3H25.2L33.7 61.2H66.6L75.1 71.3H87.1C87.6 73.9 89.8 75.8 92.5 75.8 95.6 75.8 98.1 73.3 98.1 70.2S95.6 64.6 92.5 64.6C89.8 64.6 87.5 66.5 87.1 69.1H76.1L67.4 59H32.6L24.1 69.1zM92.3 66.7C94.2 66.7 95.8 68.2 95.8 70.2 95.8 72.1 94.3 73.7 92.3 73.7S88.8 72.2 88.8 70.2 90.4 66.7 92.3 66.7M7.7 73.6C5.8 73.6 4.2 72.1 4.2 70.1 4.2 68.2 5.7 66.6 7.7 66.6S11.2 68.1 11.2 70.1C11.2 72 9.6 73.6 7.7 73.6" fill="#000000" data-fill-palette-color="quaternary"></path><path d="M86.8 28.8H74.8L66.3 38.9H33.6L25.1 28.8H13.1C12.6 26.2 10.4 24.3 7.7 24.3 4.6 24.3 2.1 26.8 2.1 29.9S4.6 35.5 7.7 35.5C10.4 35.5 12.7 33.6 13.1 31H24.1L32.6 41H67.4L75.9 30.9H86.9C87.4 33.5 89.6 35.4 92.3 35.4 95.4 35.4 97.9 32.9 97.9 29.8S95.4 24.2 92.3 24.2C89.6 24.3 87.3 26.3 86.8 28.8M7.7 33.3C5.8 33.3 4.2 31.8 4.2 29.8S5.7 26.3 7.7 26.3 11.2 27.8 11.2 29.8 9.6 33.3 7.7 33.3M95.7 29.9C95.7 31.8 94.2 33.4 92.2 33.4S88.7 31.9 88.7 29.9 90.2 26.4 92.2 26.4 95.7 28 95.7 29.9" fill="#000000" data-fill-palette-color="quaternary"></path><path d="M61.4 19.8C61.4 21 61.8 22.2 62.5 23.1L58 28.8H42.1L37.6 23.1C38.3 22.2 38.7 21 38.7 19.8 38.7 16.7 36.2 14.2 33.1 14.2S27.5 16.7 27.5 19.8 30 25.4 33.1 25.4C34.2 25.4 35.1 25.1 36 24.6L41.1 31H59L64.1 24.6C64.9 25.1 65.9 25.4 67 25.4 70.1 25.4 72.6 22.9 72.6 19.8S70.1 14.2 67 14.2 61.4 16.7 61.4 19.8M33.1 23.2C31.2 23.2 29.6 21.7 29.6 19.7S31.1 16.2 33.1 16.2C35 16.2 36.6 17.7 36.6 19.7 36.6 20.4 36.4 21 36.1 21.5L34.7 22.6 34.8 22.7C34.2 23.1 33.7 23.2 33.1 23.2M70.4 19.8C70.4 21.7 68.9 23.3 66.9 23.3 66.3 23.3 65.8 23.2 65.3 22.9L65.4 22.8 64 21.6C63.7 21.1 63.5 20.4 63.5 19.8 63.5 17.9 65 16.3 67 16.3 68.8 16.3 70.4 17.9 70.4 19.8" fill="#000000" data-fill-palette-color="quaternary"></path><path d="M63.9 75.6L59 69.1H41L36.1 75.6C35.2 75 34.2 74.7 33.1 74.7 30 74.7 27.5 77.2 27.5 80.3S30 85.9 33.1 85.9 38.7 83.4 38.7 80.3C38.7 79.1 38.3 78 37.7 77.1L42.1 71.2H58L62.4 77.1C61.8 78 61.4 79.1 61.4 80.3 61.4 83.4 63.9 85.9 67 85.9S72.6 83.4 72.6 80.3 70.1 74.7 67 74.7C65.8 74.7 64.8 75 63.9 75.6M36.5 80.2C36.5 82.1 35 83.7 33 83.7 31.1 83.7 29.5 82.2 29.5 80.2S31 76.7 33 76.7C35 76.8 36.5 78.3 36.5 80.2M70.4 80.2C70.4 82.1 68.9 83.7 66.9 83.7 65 83.7 63.4 82.2 63.4 80.2S64.9 76.7 66.9 76.7C68.8 76.8 70.4 78.3 70.4 80.2" fill="#000000" data-fill-palette-color="quaternary"></path><path d="M24.6 44.4C21.5 44.4 19 46.9 19 50S21.5 55.6 24.6 55.6C27.3 55.6 29.6 53.7 30 51.1H69.9C70.4 53.7 72.6 55.6 75.3 55.6 78.4 55.6 80.9 53.1 80.9 50S78.4 44.4 75.3 44.4C72.6 44.4 70.3 46.3 69.9 48.9H30.1C29.6 46.4 27.3 44.4 24.6 44.4M24.6 53.5C22.7 53.5 21.1 52 21.1 50 21.1 48.1 22.6 46.5 24.6 46.5S28.1 48 28.1 50C28.1 51.9 26.5 53.5 24.6 53.5M75.4 46.5C77.3 46.5 78.9 48 78.9 50 78.9 51.9 77.4 53.5 75.4 53.5S71.9 52 71.9 50C71.9 48.1 73.5 46.5 75.4 46.5" fill="#000000" data-fill-palette-color="quaternary"></path></g></svg></g></svg></g><g></g></svg></g></svg></g></svg></g><defs></defs><mask id="fa976811-019b-4e35-95c9-12dd4b6c2e98"><g id="SvgjsG1055"><svg viewBox="0 0 320 360" height="360" width="320"><g><svg></svg></g><g><svg viewBox="0 0 320 360" height="360" width="320"><g><path transform="translate(-8.74414,11.24127) scale(3.37517,3.37517)" d="M89.9 29.89c-2.6-3.17-7.52-4.8-12.74-6.52-2.24-0.74-4.55-1.51-6.81-2.44-2.28-0.94-4.52-2.15-6.7-3.31-4.43-2.38-9.01-4.84-13.66-4.84-4.64 0-9.22 2.46-13.65 4.84-2.18 1.17-4.43 2.38-6.71 3.32-2.25 0.93-4.57 1.69-6.81 2.44-5.22 1.73-10.14 3.36-12.74 6.52-3.47 4.23-3.39 10.5-3.31 17.13 0.01 1 0.02 1.99 0.02 2.97 0 0.98-0.01 1.97-0.03 2.97-0.08 6.64-0.16 12.9 3.31 17.14 2.6 3.16 7.52 4.79 12.73 6.52 2.24 0.74 4.55 1.51 6.82 2.44 2.28 0.94 4.52 2.14 6.69 3.31 4.44 2.39 9.02 4.85 13.66 4.85 4.65 0 9.23-2.46 13.66-4.84 2.18-1.17 4.42-2.38 6.7-3.31 2.25-0.93 4.55-1.69 6.78-2.43 5.25-1.74 10.17-3.37 12.77-6.53 3.47-4.23 3.39-10.5 3.31-17.13-0.01-1.01-0.03-2-0.03-2.98 0-0.98 0.01-1.97 0.03-2.96 0.11-6.66 0.19-12.93-3.29-17.16zM93.12 27.25c-4.66-5.68-13.57-7.03-21.18-10.17-6.81-2.8-13.74-8.47-21.94-8.47-8.2 0-15.13 5.67-21.94 8.47-7.62 3.14-16.52 4.49-21.18 10.17-5.06 6.16-4.24 14.85-4.24 22.75 0 7.89-0.82 16.59 4.23 22.75 4.66 5.68 13.57 7.03 21.18 10.17 6.81 2.81 13.74 8.47 21.94 8.47 8.2 0 15.13-5.66 21.94-8.47 7.62-3.14 16.52-4.49 21.18-10.17 5.05-6.16 4.23-14.85 4.23-22.75 0.02-7.9 0.84-16.59-4.22-22.75zM94.4 52.94c0.09 6.88 0.17 13.35-3.58 17.92-2.82 3.43-7.9 5.12-13.28 6.9-2.24 0.74-4.53 1.5-6.73 2.41-2.22 0.91-4.43 2.1-6.57 3.25-4.58 2.46-9.29 4.99-14.24 4.99-4.95 0-9.66-2.53-14.22-4.98-2.15-1.16-4.37-2.35-6.59-3.26-2.23-0.92-4.52-1.68-6.74-2.41-5.39-1.78-10.47-3.47-13.28-6.9-3.74-4.56-3.66-11.04-3.58-17.9 0.01-1 0.03-1.98 0.03-2.96 0-0.98-0.01-1.96-0.02-2.96-0.09-6.86-0.17-13.34 3.58-17.9 2.82-3.43 7.9-5.11 13.28-6.9 2.23-0.74 4.52-1.5 6.74-2.41 2.22-0.92 4.44-2.11 6.59-3.26 4.56-2.45 9.28-4.99 14.22-4.99 4.94 0 9.66 2.53 14.22 4.98 2.15 1.16 4.37 2.35 6.59 3.26 2.22 0.92 4.52 1.67 6.73 2.41 5.38 1.78 10.47 3.47 13.28 6.9 3.75 4.57 3.67 11.04 3.58 17.9-0.01 1.01-0.03 1.99-0.03 2.96 0 0.98 0.01 1.96 0.02 2.95z" fill="white" fill-rule="nonzero" stroke="none" stroke-width="1" stroke-linecap="butt" stroke-linejoin="miter" stroke-miterlimit="10" stroke-dasharray="" stroke-dashoffset="0" font-family="none" font-weight="none" font-size="none" text-anchor="none" style="mix-blend-mode: normal"></path></g><g transform="matrix(1,0,0,1,68.78717141600575,108)"><svg viewBox="0 0 182.4256571679885 144" height="144" width="182.4256571679885"><g><svg viewBox="0 0 192 151.55762862095685" height="144" width="182.4256571679885"><g transform="matrix(1,0,0,1,0,113.66894135077577)"><svg viewBox="0 0 192 37.88868727018107" height="37.88868727018107" width="192"><g id="SvgjsG1054"><svg viewBox="0 0 192 37.88868727018107" height="37.88868727018107" width="192" id="SvgjsSvg1053"><g><svg viewBox="0 0 192 37.88868727018107" height="37.88868727018107" width="192"><g transform="matrix(1,0,0,1,0,0)"><svg width="192" viewBox="3.49 -35.5 183.83619276812726 35.99" height="37.88868727018107" data-palette-color="#000000"><g transform="matrix(1,0,0,1,0,0)"><g><svg width="4.249864230079558" viewBox="1.99 -36.86 28.76 37.37" height="5.522200126121896" data-palette-color="#000000" id="SvgjsSvg1052" x="179.8048506530875" y="-8.157510063060949"><path d="M30.26-25.91L22.89-25.91Q22.67-28.05 21.06-29.24 19.44-30.43 16.67-30.43L16.67-30.43Q14.79-30.43 13.49-29.91 12.2-29.39 11.51-28.46 10.83-27.54 10.83-26.37L10.83-26.37Q10.8-25.39 11.25-24.66 11.7-23.93 12.5-23.41 13.3-22.89 14.35-22.51 15.39-22.12 16.58-21.86L16.58-21.86 19.85-21.08Q22.23-20.54 24.22-19.66 26.21-18.77 27.66-17.47 29.12-16.18 29.93-14.42 30.74-12.66 30.75-10.39L30.75-10.39Q30.74-7.05 29.06-4.61 27.38-2.17 24.23-0.83 21.08 0.51 16.64 0.51L16.64 0.51Q12.23 0.51 8.98-0.83 5.72-2.18 3.9-4.84 2.08-7.49 1.99-11.42L1.99-11.42 9.43-11.42Q9.55-9.59 10.48-8.37 11.42-7.16 12.99-6.54 14.56-5.93 16.55-5.93L16.55-5.93Q18.5-5.93 19.95-6.5 21.4-7.07 22.19-8.08 22.99-9.09 22.99-10.4L22.99-10.4Q22.99-11.63 22.27-12.46 21.56-13.3 20.18-13.88 18.8-14.47 16.81-14.95L16.81-14.95 12.86-15.94Q8.26-17.06 5.59-19.44 2.93-21.82 2.95-25.85L2.95-25.85Q2.93-29.15 4.71-31.62 6.5-34.09 9.62-35.48 12.75-36.86 16.73-36.86L16.73-36.86Q20.77-36.86 23.8-35.48 26.83-34.09 28.52-31.62 30.2-29.15 30.26-25.91L30.26-25.91Z" opacity="1" transform="matrix(1,0,0,1,0,0)" fill="black" class="undefined-123" id="SvgjsPath1051"></path></svg></g></g><path d="M176.533-5.396C176.533-8.377 178.949-10.793 181.93-10.793 184.91-10.793 187.326-8.377 187.326-5.396 187.326-2.416 184.91 0 181.93 0 178.949 0 176.533-2.416 176.533-5.396ZM181.93-0.553C184.605-0.553 186.773-2.721 186.773-5.396 186.773-8.071 184.605-10.24 181.93-10.24 179.255-10.24 177.086-8.071 177.086-5.396 177.086-2.721 179.255-0.553 181.93-0.553Z" fill="black" id="SvgjsPath1050"></path><path d="M23.19-8.11L23.19-8.11Q23.19-6.32 22.52-4.76 21.85-3.2 20.68-2.03 19.51-0.85 17.94-0.18 16.38 0.49 14.6 0.49L14.6 0.49 12.11 0.49Q10.33 0.49 8.75-0.18 7.18-0.85 6.01-2.03 4.83-3.2 4.16-4.76 3.49-6.32 3.49-8.11L3.49-8.11 3.49-26.9Q3.49-28.69 4.16-30.25 4.83-31.81 6.01-32.98 7.18-34.16 8.75-34.83 10.33-35.5 12.11-35.5L12.11-35.5 14.6-35.5Q16.38-35.5 17.94-34.83 19.51-34.16 20.68-32.98 21.85-31.81 22.52-30.25 23.19-28.69 23.19-26.9L23.19-26.9 23.19-8.11ZM20.04-8.11L20.04-26.9Q20.04-28.08 19.6-29.09 19.17-30.1 18.41-30.86 17.65-31.62 16.64-32.06 15.63-32.5 14.45-32.5L14.45-32.5 12.26-32.5Q11.08-32.5 10.07-32.06 9.06-31.62 8.29-30.86 7.52-30.1 7.08-29.09 6.64-28.08 6.64-26.9L6.64-26.9 6.64-8.11Q6.64-6.93 7.08-5.92 7.52-4.91 8.29-4.14 9.06-3.37 10.07-2.93 11.08-2.49 12.26-2.49L12.26-2.49 14.45-2.49Q15.63-2.49 16.64-2.93 17.65-3.37 18.41-4.14 19.17-4.91 19.6-5.92 20.04-6.93 20.04-8.11L20.04-8.11ZM50.8 0L47.17 0 37.67-14.94 33.35-14.94 33.35 0 30.2 0 30.2-35.01 41.31-35.01Q43.09-35.01 44.65-34.34 46.21-33.67 47.39-32.5 48.56-31.32 49.23-29.75 49.9-28.17 49.9-26.39L49.9-26.39 49.9-23.56Q49.9-21.78 49.23-20.2 48.56-18.63 47.39-17.46 46.21-16.28 44.65-15.61 43.09-14.94 41.31-14.94L41.31-14.94 50.8 0ZM46.75-23.56L46.75-26.39Q46.75-27.56 46.31-28.58 45.87-29.59 45.11-30.36 44.36-31.13 43.34-31.57 42.33-32.01 41.16-32.01L41.16-32.01 33.35-32.01 33.35-17.94 41.16-17.94Q42.33-17.94 43.34-18.38 44.36-18.82 45.11-19.59 45.87-20.36 46.31-21.37 46.75-22.39 46.75-23.56L46.75-23.56ZM72.85 0L56.29 0 56.29-35.01 59.44-35.01 59.44-3 72.85-3 72.85 0ZM93.3 0L90.98-8.15 79.9-8.15 77.6 0 74.33 0 84.59-35.01 86.25-35.01 96.55 0 93.3 0ZM85.34-27.29L80.75-11.16 90.15-11.16 85.54-27.29 85.44-28.59 85.34-27.29ZM120.74 0L119.08 0 104.48-25.49 104.19-27 104.19 0 101.04 0 101.04-35.01 102.68-35.01 117.28-9.5 117.59-8.01 117.59-35.01 120.74-35.01 120.74 0ZM148.45-8.59L148.45-8.59Q148.45-6.81 147.78-5.25 147.11-3.69 145.93-2.51 144.76-1.34 143.19-0.67 141.61 0 139.83 0L139.83 0 128.75 0 128.75-35.01 139.83-35.01Q141.61-35.01 143.19-34.34 144.76-33.67 145.93-32.5 147.11-31.32 147.78-29.75 148.45-28.17 148.45-26.39L148.45-26.39 148.45-8.59ZM145.3-8.59L145.3-26.39Q145.3-27.56 144.86-28.58 144.42-29.59 143.65-30.36 142.88-31.13 141.87-31.57 140.86-32.01 139.68-32.01L139.68-32.01 131.9-32.01 131.9-3 139.68-3Q140.86-3 141.87-3.44 142.88-3.88 143.65-4.64 144.42-5.4 144.86-6.41 145.3-7.42 145.3-8.59L145.3-8.59ZM175.13-8.11L175.13-8.11Q175.13-6.32 174.46-4.76 173.79-3.2 172.62-2.03 171.44-0.85 169.88-0.18 168.32 0.49 166.54 0.49L166.54 0.49 164.05 0.49Q162.27 0.49 160.69-0.18 159.12-0.85 157.94-2.03 156.77-3.2 156.1-4.76 155.43-6.32 155.43-8.11L155.43-8.11 155.43-26.9Q155.43-28.69 156.1-30.25 156.77-31.81 157.94-32.98 159.12-34.16 160.69-34.83 162.27-35.5 164.05-35.5L164.05-35.5 166.54-35.5Q168.32-35.5 169.88-34.83 171.44-34.16 172.62-32.98 173.79-31.81 174.46-30.25 175.13-28.69 175.13-26.9L175.13-26.9 175.13-8.11ZM171.98-8.11L171.98-26.9Q171.98-28.08 171.54-29.09 171.1-30.1 170.35-30.86 169.59-31.62 168.58-32.06 167.56-32.5 166.39-32.5L166.39-32.5 164.19-32.5Q163.02-32.5 162.01-32.06 161-31.62 160.23-30.86 159.46-30.1 159.02-29.09 158.58-28.08 158.58-26.9L158.58-26.9 158.58-8.11Q158.58-6.93 159.02-5.92 159.46-4.91 160.23-4.14 161-3.37 162.01-2.93 163.02-2.49 164.19-2.49L164.19-2.49 166.39-2.49Q167.56-2.49 168.58-2.93 169.59-3.37 170.35-4.14 171.1-4.91 171.54-5.92 171.98-6.93 171.98-8.11L171.98-8.11Z" opacity="1" transform="matrix(1,0,0,1,0,0)" fill="black" class="wordmark-text-0" id="SvgjsPath1049"></path></svg></g></svg></g></svg></g></svg></g><g transform="matrix(1,0,0,1,25.891660843661597,0)"><svg viewBox="0 0 140.2166783126768 104.7243316147805" height="104.7243316147805" width="140.2166783126768"><g><svg xmlns="http://www.w3.org/2000/svg" xmlns:xlink="http://www.w3.org/1999/xlink" version="1.1" x="0" y="0" viewBox="2.1 14.2 96 71.7" style="enable-background:new 0 0 100 100;" xml:space="preserve" height="104.7243316147805" width="140.2166783126768" class="icon-icon-0" data-fill-palette-color="quaternary" id="SvgjsSvg1048"><g fill="black"><path d="M13.2 69.1C12.7 66.5 10.5 64.6 7.8 64.6 4.7 64.6 2.2 67.1 2.2 70.2S4.7 75.8 7.8 75.8C10.5 75.8 12.8 73.9 13.2 71.3H25.2L33.7 61.2H66.6L75.1 71.3H87.1C87.6 73.9 89.8 75.8 92.5 75.8 95.6 75.8 98.1 73.3 98.1 70.2S95.6 64.6 92.5 64.6C89.8 64.6 87.5 66.5 87.1 69.1H76.1L67.4 59H32.6L24.1 69.1zM92.3 66.7C94.2 66.7 95.8 68.2 95.8 70.2 95.8 72.1 94.3 73.7 92.3 73.7S88.8 72.2 88.8 70.2 90.4 66.7 92.3 66.7M7.7 73.6C5.8 73.6 4.2 72.1 4.2 70.1 4.2 68.2 5.7 66.6 7.7 66.6S11.2 68.1 11.2 70.1C11.2 72 9.6 73.6 7.7 73.6" fill="black"></path><path d="M86.8 28.8H74.8L66.3 38.9H33.6L25.1 28.8H13.1C12.6 26.2 10.4 24.3 7.7 24.3 4.6 24.3 2.1 26.8 2.1 29.9S4.6 35.5 7.7 35.5C10.4 35.5 12.7 33.6 13.1 31H24.1L32.6 41H67.4L75.9 30.9H86.9C87.4 33.5 89.6 35.4 92.3 35.4 95.4 35.4 97.9 32.9 97.9 29.8S95.4 24.2 92.3 24.2C89.6 24.3 87.3 26.3 86.8 28.8M7.7 33.3C5.8 33.3 4.2 31.8 4.2 29.8S5.7 26.3 7.7 26.3 11.2 27.8 11.2 29.8 9.6 33.3 7.7 33.3M95.7 29.9C95.7 31.8 94.2 33.4 92.2 33.4S88.7 31.9 88.7 29.9 90.2 26.4 92.2 26.4 95.7 28 95.7 29.9" fill="black"></path><path d="M61.4 19.8C61.4 21 61.8 22.2 62.5 23.1L58 28.8H42.1L37.6 23.1C38.3 22.2 38.7 21 38.7 19.8 38.7 16.7 36.2 14.2 33.1 14.2S27.5 16.7 27.5 19.8 30 25.4 33.1 25.4C34.2 25.4 35.1 25.1 36 24.6L41.1 31H59L64.1 24.6C64.9 25.1 65.9 25.4 67 25.4 70.1 25.4 72.6 22.9 72.6 19.8S70.1 14.2 67 14.2 61.4 16.7 61.4 19.8M33.1 23.2C31.2 23.2 29.6 21.7 29.6 19.7S31.1 16.2 33.1 16.2C35 16.2 36.6 17.7 36.6 19.7 36.6 20.4 36.4 21 36.1 21.5L34.7 22.6 34.8 22.7C34.2 23.1 33.7 23.2 33.1 23.2M70.4 19.8C70.4 21.7 68.9 23.3 66.9 23.3 66.3 23.3 65.8 23.2 65.3 22.9L65.4 22.8 64 21.6C63.7 21.1 63.5 20.4 63.5 19.8 63.5 17.9 65 16.3 67 16.3 68.8 16.3 70.4 17.9 70.4 19.8" fill="black"></path><path d="M63.9 75.6L59 69.1H41L36.1 75.6C35.2 75 34.2 74.7 33.1 74.7 30 74.7 27.5 77.2 27.5 80.3S30 85.9 33.1 85.9 38.7 83.4 38.7 80.3C38.7 79.1 38.3 78 37.7 77.1L42.1 71.2H58L62.4 77.1C61.8 78 61.4 79.1 61.4 80.3 61.4 83.4 63.9 85.9 67 85.9S72.6 83.4 72.6 80.3 70.1 74.7 67 74.7C65.8 74.7 64.8 75 63.9 75.6M36.5 80.2C36.5 82.1 35 83.7 33 83.7 31.1 83.7 29.5 82.2 29.5 80.2S31 76.7 33 76.7C35 76.8 36.5 78.3 36.5 80.2M70.4 80.2C70.4 82.1 68.9 83.7 66.9 83.7 65 83.7 63.4 82.2 63.4 80.2S64.9 76.7 66.9 76.7C68.8 76.8 70.4 78.3 70.4 80.2" fill="black"></path><path d="M24.6 44.4C21.5 44.4 19 46.9 19 50S21.5 55.6 24.6 55.6C27.3 55.6 29.6 53.7 30 51.1H69.9C70.4 53.7 72.6 55.6 75.3 55.6 78.4 55.6 80.9 53.1 80.9 50S78.4 44.4 75.3 44.4C72.6 44.4 70.3 46.3 69.9 48.9H30.1C29.6 46.4 27.3 44.4 24.6 44.4M24.6 53.5C22.7 53.5 21.1 52 21.1 50 21.1 48.1 22.6 46.5 24.6 46.5S28.1 48 28.1 50C28.1 51.9 26.5 53.5 24.6 53.5M75.4 46.5C77.3 46.5 78.9 48 78.9 50 78.9 51.9 77.4 53.5 75.4 53.5S71.9 52 71.9 50C71.9 48.1 73.5 46.5 75.4 46.5" fill="black"></path></g></svg></g></svg></g><g></g></svg></g></svg></g></svg></g><defs><mask></mask></defs></svg><rect width="320" height="360" fill="black" stroke="none" visibility="hidden"></rect></g></mask><linearGradient x1="0.054" x2="0.941" y1="0.5" y2="0.5" id="d94c8661-2dc6-4f6f-bbbc-ee5ad78d0d21"><stop stop-color="#9c7945" offset="0"></stop><stop stop-color="#faf3aa" offset="0.498"></stop><stop stop-color="#9c7945" offset="1"></stop></linearGradient></svg><rect width="320" height="360" fill="none" stroke="none" visibility="hidden"></rect></g></svg></g></svg>